ik_tiny_file
version=1
nRows=13
nColumns=40
inDegrees=yes
endheader
time	pelvis_tilt	pelvis_list	pelvis_rotation	pelvis_tx	pelvis_ty	pelvis_tz	hip_flexion_r	hip_adduction_r	hip_rotation_r	knee_angle_r	knee_angle_r_beta	ankle_angle_r	subtalar_angle_r	mtp_angle_r	hip_flexion_l	hip_adduction_l	hip_rotation_l	knee_angle_l	knee_angle_l_beta	ankle_angle_l	subtalar_angle_l	mtp_angle_l	lumbar_extension	lumbar_bending	lumbar_rotation	arm_flex_r	arm_add_r	arm_rot_r	elbow_flex_r	pro_sup_r	wrist_flex_r	wrist_dev_r	arm_flex_l	arm_add_l	arm_rot_l	elbow_flex_l	pro_sup_l	wrist_flex_l	wrist_dev_l
      9.12000000	     95.24789623	     -1.83916682	      6.43455817	      0.00000000	      0.94000000	      0.00000000	     42.89443345	     -9.99840828	      0.00000000	     56.02009089	      0.97773503	     -4.90470016	      0.00000000	      0.00000000	     42.89443345	     -9.99840828	      0.00000000	     56.02009089	      0.97773503	     -4.90470016	      0.00000000	      0.00000000	    -89.29412953	     10.61344409	     13.41395612	    -77.14860472	      0.81137527	    -23.38490297	    103.12969626	     44.97107861	      0.00000000	      4.99999440	     -3.51475308	      4.65862137	      9.34221749	      0.14731957	     44.97107861	      0.00000000	      4.99999440
      9.14000000	     95.24814776	     -1.81885873	      6.40283733	      0.00000000	      0.94000000	      0.00000000	     42.89573365	     -9.99841172	      0.00000000	     56.02201971	      0.97776870	     -4.90478178	      0.00000000	      0.00000000	     42.89573365	     -9.99841172	      0.00000000	     56.02201971	      0.97776870	     -4.90478178	      0.00000000	      0.00000000	    -89.34348279	     10.52026379	     13.25150673	    -78.12536455	      1.09004410	    -23.16376470	    102.81863511	     44.97112810	      0.00000000	      4.99999442	     -3.47995502	      4.63580964	      9.22980671	      0.14690361	     44.97112810	      0.00000000	      4.99999442
      9.16000000	     95.22647673	     -1.83201686	      6.37874333	      0.00000000	      0.94000000	      0.00000000	     42.89600620	     -9.99841244	      0.00000000	     56.02242524	      0.97777578	     -4.90479886	      0.00000000	      0.00000000	     42.89600620	     -9.99841244	      0.00000000	     56.02242524	      0.97777578	     -4.90479886	      0.00000000	      0.00000000	    -89.41898413	     10.46469113	     13.09265994	    -78.84531783	      1.45046625	    -23.03824791	    102.38636733	     44.97113844	      0.00000000	      4.99999442	     -3.41378926	      4.66790024	      9.15147825	      0.14695667	     44.97113844	      0.00000000	      4.99999442
      9.18000000	     95.24335785	     -1.85562756	      6.33986124	      0.00000000	      0.94000000	      0.00000000	     42.89709920	     -9.99841533	      0.00000000	     56.02404695	      0.97780408	     -4.90486745	      0.00000000	      0.00000000	     42.89709920	     -9.99841533	      0.00000000	     56.02404695	      0.97780408	     -4.90486745	      0.00000000	      0.00000000	    -89.48823962	     10.38397084	     13.02184942	    -79.79978980	      2.16423773	    -22.73912910	    102.34989224	     44.97117999	      0.00000000	      4.99999444	     -3.36964844	      4.59336912	      9.08710475	      0.15038700	     44.97117999	      0.00000000	      4.99999444
      9.20000000	     95.17198529	     -1.88076138	      6.34700986	      0.00000000	      0.94000000	      0.00000000	     42.89750759	     -9.99841641	      0.00000000	     56.02465395	      0.97781467	     -4.90489306	      0.00000000	      0.00000000	     42.89750759	     -9.99841641	      0.00000000	     56.02465395	      0.97781467	     -4.90489306	      0.00000000	      0.00000000	    -89.55039806	     10.37393299	     12.92961789	    -80.44542877	      2.56703652	    -22.58899306	    101.83777599	     44.97119547	      0.00000000	      4.99999445	     -3.26871009	      4.57257905	      8.95119629	      0.15075060	     44.97119547	      0.00000000	      4.99999445
      9.22000000	     95.07952858	     -1.92050288	      6.35336007	      0.00000000	      0.94000000	      0.00000000	     42.89841453	     -9.99841880	      0.00000000	     56.02600030	      0.97783817	     -4.90494994	      0.00000000	      0.00000000	     42.89841453	     -9.99841880	      0.00000000	     56.02600030	      0.97783817	     -4.90494994	      0.00000000	      0.00000000	    -89.58346386	     10.29843459	     12.79783093	    -80.81945785	      2.51275109	    -22.34007948	    100.92522689	     44.97122989	      0.00000000	      4.99999446	     -3.15428475	      4.53615816	      8.81768319	      0.15312103	     44.97122989	      0.00000000	      4.99999446
      9.24000000	     95.01169278	     -1.94532207	      6.34427727	      0.00000000	      0.94000000	      0.00000000	     42.89976204	     -9.99842236	      0.00000000	     56.02800047	      0.97787308	     -4.90503446	      0.00000000	      0.00000000	     42.89976204	     -9.99842236	      0.00000000	     56.02800047	      0.97787308	     -4.90503446	      0.00000000	      0.00000000	    -89.56658643	     10.23096032	     12.56349662	    -81.14375900	      2.09285163	    -22.09233393	     99.69909849	     44.97128099	      0.00000000	      4.99999449	     -3.06572988	      4.42961943	      8.54981950	      0.15165603	     44.97128099	      0.00000000	      4.99999449
      9.26000000	     94.98309802	     -1.98669439	      6.33017233	      0.00000000	      0.94000000	      0.00000000	     42.90086488	     -9.99842526	      0.00000000	     56.02963897	      0.97790168	     -4.90510359	      0.00000000	      0.00000000	     42.90086488	     -9.99842526	      0.00000000	     56.02963897	      0.97790168	     -4.90510359	      0.00000000	      0.00000000	    -89.54194152	     10.17675857	     12.35191601	    -81.29306107	      0.94332917	    -22.01952951	     97.93662974	     44.97132273	      0.00000000	      4.99999450	     -3.04679724	      4.31987706	      8.37985280	      0.14764312	     44.97132273	      0.00000000	      4.99999450
      9.28000000	     94.96333638	     -2.00071908	      6.31351503	      0.00000000	      0.94000000	      0.00000000	     42.90218644	     -9.99842873	      0.00000000	     56.03160221	      0.97793594	     -4.90518642	      0.00000000	      0.00000000	     42.90218644	     -9.99842873	      0.00000000	     56.03160221	      0.97793594	     -4.90518642	      0.00000000	      0.00000000	    -89.53532423	     10.10803504	     12.10905525	    -81.36528083	     -0.34548184	    -22.06739672	     96.16357166	     44.97137272	      0.00000000	      4.99999453	     -3.07046180	      4.25046533	      8.28390366	      0.15099792	     44.97137272	      0.00000000	      4.99999453
      9.30000000	     94.92448688	     -2.01714151	      6.31493711	      0.00000000	      0.94000000	      0.00000000	     42.90330678	     -9.99843166	      0.00000000	     56.03326655	      0.97796499	     -4.90525662	      0.00000000	      0.00000000	     42.90330678	     -9.99843166	      0.00000000	     56.03326655	      0.97796499	     -4.90525662	      0.00000000	      0.00000000	    -89.54062355	     10.04709370	     11.95710940	    -81.54445802	     -1.12678084	    -21.82812938	     94.73529669	     44.97141505	      0.00000000	      4.99999455	     -3.09767151	      4.27074386	      8.26340028	      0.15169868	     44.97141505	      0.00000000	      4.99999455
      9.32000000	     94.90348655	     -2.03318930	      6.31114619	      0.00000000	      0.94000000	      0.00000000	     42.90441100	     -9.99843456	      0.00000000	     56.03490642	      0.97799361	     -4.90532581	      0.00000000	      0.00000000	     42.90441100	     -9.99843456	      0.00000000	     56.03490642	      0.97799361	     -4.90532581	      0.00000000	      0.00000000	    -89.55594511	      9.97011943	     11.82814510	    -82.33170674	     -1.73535849	    -21.44171181	     94.04203549	     44.97145675	      0.00000000	      4.99999456	     -3.08794525	      4.27607558	      8.16072024	      0.15670935	     44.97145675	      0.00000000	      4.99999456
      9.34000000	     94.88962952	     -2.04599374	      6.29924021	      0.00000000	      0.94000000	      0.00000000	     42.90557948	     -9.99843762	      0.00000000	     56.03664185	      0.97802390	     -4.90539902	      0.00000000	      0.00000000	     42.90557948	     -9.99843762	      0.00000000	     56.03664185	      0.97802390	     -4.90539902	      0.00000000	      0.00000000	    -89.56271102	      9.88083536	     11.64498726	    -83.06778091	     -2.43072820	    -21.12816883	     93.24210354	     44.97150084	      0.00000000	      4.99999458	     -3.05793481	      4.18806777	      7.96141588	      0.16049329	     44.97150084	      0.00000000	      4.99999458
      9.36000000	     94.85060121	     -2.06407355	      6.30875620	      0.00000000	      0.94000000	      0.00000000	     42.90597627	     -9.99843865	      0.00000000	     56.03723206	      0.97803420	     -4.90542386	      0.00000000	      0.00000000	     42.90597627	     -9.99843865	      0.00000000	     56.03723206	      0.97803420	     -4.90542386	      0.00000000	      0.00000000	    -89.53612524	      9.84511812	     11.56381324	    -83.77053447	     -2.56086316	    -20.79845347	     92.76640439	     44.97151578	      0.00000000	      4.99999459	     -3.03951017	      4.15733743	      7.86497488	      0.16453479	     44.97151578	      0.00000000	      4.99999459
